<svg width="420" height="420" viewBox="0 0 420 420" fill="none" xmlns="http://www.w3.org/2000/svg">
<path d="M65.9318 156.354C65.9317 155.288 66.7688 154.415 67.8343 154.369L134.947 151.517C136.051 151.47 136.989 152.327 137.043 153.43L138.913 191.541C138.968 192.644 138.117 193.576 137.013 193.623L69.9914 196.472C68.8897 196.518 67.9521 195.665 67.8955 194.564L66.9271 175.737L65.9321 160.809L65.9318 156.354Z" fill="#314452"/>
<ellipse cx="100.898" cy="152.905" rx="35.8573" ry="42.1501" fill="#314452"/>
<ellipse cx="39.6317" cy="36.8814" rx="39.6317" ry="36.8814" transform="matrix(0.999983 0.0058524 -0.00675781 0.999977 76.8625 33.4802)" fill="#314452"/>
<ellipse cx="175.443" cy="193.3" rx="16.0414" ry="12.2938" fill="#314452"/>
<path d="M72.5894 183.006C72.5894 181.901 73.4848 181.006 74.5894 181.006H174.387C175.491 181.006 176.387 181.901 176.387 183.006V203.593C176.387 204.698 175.491 205.593 174.387 205.593H74.5894C73.4848 205.593 72.5894 204.698 72.5894 203.593V183.006Z" fill="#314452"/>
<path d="M67.1562 184.784C66.8654 182.016 68.8927 179.572 71.6663 179.346L91.8957 177.699C93.2347 177.59 94.5679 178.024 95.595 178.902L119.091 199.007C120.643 200.335 121.248 202.458 120.622 204.379L104.556 253.671C104.477 253.914 104.379 254.151 104.264 254.378L102.051 258.727C101.701 259.415 101.195 260.01 100.572 260.466L98.919 261.673C98.0664 262.296 97.0339 262.63 95.971 262.625L87.7939 262.592L82.0856 262.569C81.3219 262.566 80.5669 262.389 79.8784 262.05L77.5447 260.904C75.9783 260.135 74.9139 258.615 74.7325 256.889L67.1562 184.784Z" fill="#314452"/>
<rect width="20.3893" height="132.089" rx="10.1947" transform="matrix(0.996708 -0.0810777 0.093682 0.995602 40 143.869)" fill="#314452"/>
<path d="M51.8296 265.306H91.3486C92.4532 265.306 93.3486 266.201 93.3486 267.306V277.6H56.8296C54.0682 277.6 51.8296 275.361 51.8296 272.6V265.306Z" fill="#314452"/>
<path d="M125.432 207.349H350.012L371.715 277.6H99.9541L125.432 207.349Z" fill="#314452"/>
<path d="M59.3787 281.112H149.966V296.417C149.966 298.762 148.336 300.792 146.047 301.299L130.15 304.821L102.785 305.7L78.2509 304.821L63.2457 301.331C60.9812 300.804 59.3787 298.786 59.3787 296.461V281.112Z" fill="#314452"/>
<path d="M287.733 281.112H370.771V293.601C370.771 295.971 369.107 298.016 366.786 298.497L352.607 301.434L327.522 302.187L305.033 301.434L291.67 298.528C289.372 298.028 287.733 295.994 287.733 293.642V281.112Z" fill="#314452"/>
<path d="M73.5159 295.064L90.0019 301.725L63.3697 358.812C62.2023 361.314 59.1803 362.504 56.6199 361.47L49.4058 358.555C46.8454 357.521 45.7163 354.653 46.8837 352.151L73.5159 295.064Z" fill="#314452"/>
<path d="M298.422 294.954L317.017 301.047L294.816 359.732C293.838 362.315 290.919 363.712 288.295 362.852L279.202 359.873C276.578 359.014 275.243 356.223 276.22 353.64L298.422 294.954Z" fill="#314452"/>
<path d="M114.3 305.254L133 299.6L151.375 352.228C152.285 354.836 150.88 357.597 148.237 358.396L139.109 361.156C136.466 361.955 133.585 360.49 132.675 357.883L114.3 305.254Z" fill="#314452"/>
<path d="M337.685 300.326L356.235 294.259L378.234 352.515C379.209 355.098 377.872 357.888 375.248 358.746L366.202 361.705C363.578 362.563 360.659 361.164 359.684 358.581L337.685 300.326Z" fill="#314452"/>
<rect x="199.033" y="277.599" width="41.519" height="94.8377" fill="#314452"/>
<path d="M155.627 368.387C155.627 362.865 160.105 358.387 165.627 358.387H272.072C277.595 358.387 282.072 362.865 282.072 368.387V385C282.072 387.761 279.833 390 277.072 390H160.627C157.866 390 155.627 387.761 155.627 385V368.387Z" fill="#314452"/>
<path d="M253.687 31.7323L258.41 57.1995L263.13 62.4693L267.849 66.861L292.46 72.4439L279.174 74.7666L268.794 76.5208L262.19 80.9102L257.474 87.9344L250.874 110.765L248.04 94.9576L246.151 87.0539L242.375 80.9061L237.656 76.5145L233.881 74.7574L226.332 72.1214L211.234 69.4836L223.5 67.7298L231.125 66.8536L233.955 65.976L236.71 65.0984L243.314 60.709L246.144 57.197L253.687 31.7323Z" fill="#314452"/>
<path d="M297.561 102.135L298.936 114.066L300.954 116.638L303 118.803L314.227 122.067L307.996 122.777L303.13 123.305L299.929 125.157L297.519 128.282L293.73 138.68L292.922 131.277L292.3 127.563L290.746 124.61L288.7 122.445L287.007 121.527L283.593 120.098L276.681 118.461L282.421 117.985L285.982 117.789L287.322 117.46L288.627 117.129L291.827 115.277L293.251 113.728L297.561 102.135Z" fill="#314452"/>
<path d="M208.843 98.6438L211.48 110.389L213.762 112.762L216.029 114.728L227.548 116.941L221.423 118.223L216.637 119.196L213.649 121.334L211.583 124.666L208.92 135.362L207.328 128.07L206.313 124.431L204.454 121.636L202.187 119.671L200.404 118.913L196.855 117.806L189.803 116.813L195.464 115.811L198.987 115.288L200.285 114.837L201.548 114.388L204.536 112.249L205.788 110.576L208.843 98.6438Z" fill="#314452"/>
</svg>
